<svg xmlns="http://www.w3.org/2000/svg" width="531" height="136" viewBox="0 0 531 136" fill="none"><path d="M18.2 17.256L17.524 15.332L16.848 17.256L10.296 33.168H24.752L18.2 17.256ZM15.912 10.6H19.188L34.112 47H30.264L25.948 36.444H9.1L4.888 47H1.04L15.912 10.6ZM49.9098 20.324C52.6138 20.324 54.7112 21.2253 56.2018 23.028C57.6925 24.796 58.4378 27.1707 58.4378 30.152V47H55.1618V30.464C55.1618 28.2107 54.6418 26.4947 53.6018 25.316C52.5965 24.1027 51.1925 23.496 49.3898 23.496C47.3792 23.496 45.7325 24.328 44.4498 25.992C43.1672 27.6213 42.5258 29.788 42.5258 32.492V47H39.2498V20.896H42.2658L42.4218 24.848C42.9765 23.5653 43.9298 22.4907 45.2818 21.624C46.6685 20.7573 48.2112 20.324 49.9098 20.324ZM83.423 20.896H86.959L72.243 58.18H68.759L73.335 46.584L63.195 20.896H66.679L74.531 41.124L75.051 42.944L75.623 41.124L83.423 20.896ZM92.9573 24.172C95.4186 21.6067 98.556 20.324 102.369 20.324C106.217 20.324 109.337 21.6067 111.729 24.172C114.121 26.7373 115.317 29.996 115.317 33.948C115.317 37.9347 114.121 41.1933 111.729 43.724C109.337 46.2893 106.217 47.572 102.369 47.572C98.556 47.572 95.4186 46.2893 92.9573 43.724C90.5653 41.1933 89.3693 37.9347 89.3693 33.948C89.3693 29.9613 90.5653 26.7027 92.9573 24.172ZM109.337 26.408C107.639 24.3973 105.333 23.392 102.421 23.392C99.5093 23.392 97.152 24.3973 95.3493 26.408C93.5813 28.384 92.6973 30.8973 92.6973 33.948C92.6973 36.964 93.5813 39.4947 95.3493 41.54C97.152 43.516 99.5093 44.504 102.421 44.504C105.333 44.504 107.639 43.516 109.337 41.54C111.105 39.4947 111.989 36.964 111.989 33.948C111.989 30.8973 111.105 28.384 109.337 26.408ZM132.074 20.324C134.778 20.324 136.875 21.2253 138.366 23.028C139.857 24.796 140.602 27.1707 140.602 30.152V47H137.326V30.464C137.326 28.2107 136.806 26.4947 135.766 25.316C134.761 24.1027 133.357 23.496 131.554 23.496C129.543 23.496 127.897 24.328 126.614 25.992C125.331 27.6213 124.69 29.788 124.69 32.492V47H121.414V20.896H124.43L124.586 24.848C125.141 23.5653 126.094 22.4907 127.446 21.624C128.833 20.7573 130.375 20.324 132.074 20.324ZM158.515 20.324C162.12 20.324 164.998 21.4853 167.147 23.808C169.296 26.096 170.371 29.2853 170.371 33.376V35.196H149.623C149.762 38.004 150.663 40.2573 152.327 41.956C154.026 43.6547 156.14 44.504 158.671 44.504C162.762 44.504 165.431 42.8747 166.679 39.616H170.059C169.262 42.1467 167.875 44.1053 165.899 45.492C163.923 46.8787 161.496 47.572 158.619 47.572C155.014 47.572 152.05 46.324 149.727 43.828C147.439 41.332 146.295 38.056 146.295 34C146.295 29.9787 147.404 26.7027 149.623 24.172C151.876 21.6067 154.84 20.324 158.515 20.324ZM158.515 23.392C156.054 23.392 154.008 24.2067 152.379 25.836C150.75 27.4653 149.831 29.5973 149.623 32.232H167.043C167.043 29.4933 166.263 27.344 164.703 25.784C163.178 24.1893 161.115 23.392 158.515 23.392ZM235.293 45.076C235.293 46.532 234.963 48.0573 234.305 49.652C233.646 51.2467 232.797 52.616 231.757 53.76L230.561 53.292C231.601 51.4893 232.242 49.5307 232.485 47.416C231.375 47.416 230.595 46.8787 230.145 45.804C229.729 44.6947 229.919 43.7587 230.717 42.996C231.514 42.1293 232.502 41.956 233.681 42.476C234.859 42.9613 235.397 43.828 235.293 45.076ZM266.622 17.256L265.946 15.332L265.27 17.256L258.718 33.168H273.174L266.622 17.256ZM264.334 10.6H267.61L282.534 47H278.686L274.37 36.444H257.522L253.31 47H249.462L264.334 10.6ZM298.332 20.324C301.036 20.324 303.133 21.2253 304.624 23.028C306.114 24.796 306.86 27.1707 306.86 30.152V47H303.584V30.464C303.584 28.2107 303.064 26.4947 302.024 25.316C301.018 24.1027 299.614 23.496 297.812 23.496C295.801 23.496 294.154 24.328 292.872 25.992C291.589 27.6213 290.948 29.788 290.948 32.492V47H287.672V20.896H290.688L290.844 24.848C291.398 23.5653 292.352 22.4907 293.704 21.624C295.09 20.7573 296.633 20.324 298.332 20.324ZM331.845 20.896H335.381L320.665 58.18H317.181L321.757 46.584L311.617 20.896H315.101L322.953 41.124L323.473 42.944L324.045 41.124L331.845 20.896ZM371.475 20.896H374.959L366.431 47H363.259L356.135 26.564L349.011 47H345.839L337.363 20.896H340.847L347.035 40.448L347.607 42.632L348.179 40.448L354.783 20.896H357.539L364.143 40.448L364.715 42.632L365.287 40.448L371.475 20.896ZM380.094 9.04H383.37V24.692C383.82 23.5133 384.739 22.4907 386.126 21.624C387.512 20.7573 389.055 20.324 390.754 20.324C393.458 20.324 395.555 21.2253 397.046 23.028C398.536 24.796 399.282 27.1707 399.282 30.152V47H396.006V30.464C396.006 28.2107 395.486 26.4947 394.446 25.316C393.44 24.1027 392.036 23.496 390.234 23.496C388.223 23.496 386.576 24.328 385.294 25.992C384.011 27.6213 383.37 29.788 383.37 32.492V47H380.094V9.04ZM417.195 20.324C420.8 20.324 423.677 21.4853 425.827 23.808C427.976 26.096 429.051 29.2853 429.051 33.376V35.196H408.303C408.441 38.004 409.343 40.2573 411.007 41.956C412.705 43.6547 414.82 44.504 417.351 44.504C421.441 44.504 424.111 42.8747 425.359 39.616H428.739C427.941 42.1467 426.555 44.1053 424.579 45.492C422.603 46.8787 420.176 47.572 417.299 47.572C413.693 47.572 410.729 46.324 408.407 43.828C406.119 41.332 404.975 38.056 404.975 34C404.975 29.9787 406.084 26.7027 408.303 24.172C410.556 21.6067 413.52 20.324 417.195 20.324ZM417.195 23.392C414.733 23.392 412.688 24.2067 411.059 25.836C409.429 27.4653 408.511 29.5973 408.303 32.232H425.723C425.723 29.4933 424.943 27.344 423.383 25.784C421.857 24.1893 419.795 23.392 417.195 23.392ZM447.293 20.636V23.86C445.178 23.86 443.41 24.5707 441.989 25.992C440.325 27.5867 439.493 29.8747 439.493 32.856V47H436.217V20.896H439.285L439.389 25.628C439.943 24.172 440.897 22.976 442.249 22.04C443.635 21.104 445.317 20.636 447.293 20.636ZM462.136 20.324C465.742 20.324 468.619 21.4853 470.768 23.808C472.918 26.096 473.992 29.2853 473.992 33.376V35.196H453.244C453.383 38.004 454.284 40.2573 455.948 41.956C457.647 43.6547 459.762 44.504 462.292 44.504C466.383 44.504 469.052 42.8747 470.3 39.616H473.68C472.883 42.1467 471.496 44.1053 469.52 45.492C467.544 46.8787 465.118 47.572 462.24 47.572C458.635 47.572 455.671 46.324 453.348 43.828C451.06 41.332 449.916 38.056 449.916 34C449.916 29.9787 451.026 26.7027 453.244 24.172C455.498 21.6067 458.462 20.324 462.136 20.324ZM462.136 23.392C459.675 23.392 457.63 24.2067 456 25.836C454.371 27.4653 453.452 29.5973 453.244 32.232H470.664C470.664 29.4933 469.884 27.344 468.324 25.784C466.799 24.1893 464.736 23.392 462.136 23.392ZM12.428 88.324C15.3053 88.324 17.5067 89.1387 19.032 90.768C20.592 92.3627 21.372 94.6333 21.372 97.58V115H18.252L18.148 111.204C17.42 112.487 16.3107 113.544 14.82 114.376C13.364 115.173 11.7173 115.572 9.88 115.572C7.62667 115.572 5.824 114.931 4.472 113.648C3.15467 112.365 2.496 110.684 2.496 108.604C2.496 104.617 4.85333 102.139 9.568 101.168L18.044 99.4V97.684C18.044 93.4893 16.172 91.392 12.428 91.392C10.6253 91.392 9.18667 91.8773 8.112 92.848C7.03733 93.8187 6.5 95.2053 6.5 97.008H3.224C3.29333 94.4773 4.14267 92.4147 5.772 90.82C7.47067 89.156 9.68933 88.324 12.428 88.324ZM18.044 104.548V102.364L10.192 104.08C8.70133 104.427 7.592 104.947 6.864 105.64C6.17067 106.299 5.824 107.269 5.824 108.552C5.824 109.8 6.20533 110.771 6.968 111.464C7.76533 112.157 8.87467 112.504 10.296 112.504C12.792 112.504 14.8027 111.568 16.328 109.696C17.472 108.171 18.044 106.455 18.044 104.548ZM30.6499 82.24H33.9259L33.8739 88.896H40.9459V91.964H33.8219L33.7179 107.824C33.7179 109.453 33.9953 110.615 34.5499 111.308C35.1046 112.001 36.1273 112.348 37.6179 112.348C38.7966 112.348 39.9059 112.175 40.9459 111.828V114.792C40.0099 115.173 38.7793 115.364 37.2539 115.364C34.9313 115.364 33.2153 114.792 32.1059 113.648C30.9966 112.504 30.4593 110.701 30.4939 108.24L30.5979 91.964H25.3979V88.896H30.5979L30.6499 82.24ZM71.6727 85.256L70.9967 83.332L70.3207 85.256L63.7687 101.168H78.2247L71.6727 85.256ZM69.3847 78.6H72.6607L87.5847 115H83.7367L79.4207 104.444H62.5727L58.3607 115H54.5127L69.3847 78.6ZM103.383 88.324C106.087 88.324 108.184 89.2253 109.675 91.028C111.165 92.796 111.911 95.1707 111.911 98.152V115H108.635V98.464C108.635 96.2107 108.115 94.4947 107.075 93.316C106.069 92.1027 104.665 91.496 102.863 91.496C100.852 91.496 99.2052 92.328 97.9225 93.992C96.6398 95.6213 95.9985 97.788 95.9985 100.492V115H92.7225V88.896H95.7385L95.8945 92.848C96.4492 91.5653 97.4025 90.4907 98.7545 89.624C100.141 88.7573 101.684 88.324 103.383 88.324ZM136.896 88.896H140.432L125.716 126.18H122.232L126.808 114.584L116.668 88.896H120.152L128.004 109.124L128.524 110.944L129.096 109.124L136.896 88.896ZM146.99 82.24H150.266L150.214 88.896H157.286V91.964H150.162L150.058 107.824C150.058 109.453 150.335 110.615 150.89 111.308C151.444 112.001 152.467 112.348 153.958 112.348C155.136 112.348 156.246 112.175 157.286 111.828V114.792C156.35 115.173 155.119 115.364 153.594 115.364C151.271 115.364 149.555 114.792 148.446 113.648C147.336 112.504 146.799 110.701 146.834 108.24L146.938 91.964H141.738V88.896H146.938L146.99 82.24ZM163.212 88.896H166.488V115H163.212V88.896ZM164.876 78.08C165.569 78.08 166.158 78.34 166.644 78.86C167.164 79.3453 167.424 79.9347 167.424 80.628C167.424 81.3213 167.164 81.9107 166.644 82.396C166.158 82.8813 165.569 83.124 164.876 83.124C164.148 83.124 163.541 82.8813 163.056 82.396C162.57 81.9107 162.328 81.3213 162.328 80.628C162.328 79.9347 162.57 79.3453 163.056 78.86C163.541 78.34 164.148 78.08 164.876 78.08ZM201.352 88.324C204.056 88.324 206.136 89.208 207.592 90.976C209.083 92.744 209.828 95.136 209.828 98.152V115H206.552V98.464C206.552 96.2107 206.049 94.4947 205.044 93.316C204.039 92.1027 202.635 91.496 200.832 91.496C198.856 91.496 197.227 92.276 195.944 93.836C194.696 95.396 194.055 97.476 194.02 100.076V115H190.796V98.464C190.796 96.2107 190.276 94.4947 189.236 93.316C188.231 92.1027 186.827 91.496 185.024 91.496C183.013 91.496 181.384 92.3107 180.136 93.94C178.888 95.5693 178.264 97.7533 178.264 100.492V115H174.988V88.896H178.004L178.16 92.848C178.715 91.5653 179.668 90.4907 181.02 89.624C182.372 88.7573 183.88 88.324 185.544 88.324C189.427 88.324 192.009 90.092 193.292 93.628C194.055 92.068 195.129 90.8027 196.516 89.832C197.937 88.8267 199.549 88.324 201.352 88.324ZM227.73 88.324C231.335 88.324 234.213 89.4853 236.362 91.808C238.511 94.096 239.586 97.2853 239.586 101.376V103.196H218.838C218.977 106.004 219.878 108.257 221.542 109.956C223.241 111.655 225.355 112.504 227.886 112.504C231.977 112.504 234.646 110.875 235.894 107.616H239.274C238.477 110.147 237.09 112.105 235.114 113.492C233.138 114.879 230.711 115.572 227.834 115.572C224.229 115.572 221.265 114.324 218.942 111.828C216.654 109.332 215.51 106.056 215.51 102C215.51 97.9787 216.619 94.7027 218.838 92.172C221.091 89.6067 224.055 88.324 227.73 88.324ZM227.73 91.392C225.269 91.392 223.223 92.2067 221.594 93.836C219.965 95.4653 219.046 97.5973 218.838 100.232H236.258C236.258 97.4933 235.478 95.344 233.918 93.784C232.393 92.1893 230.33 91.392 227.73 91.392Z" fill="#5B539C"></path><g opacity="0.8"><path d="M196.333 33.3335C196.333 33.3335 198.833 36.6668 203 36.6668C207.167 36.6668 209.667 33.3335 209.667 33.3335M211.333 25.4002C210.675 26.2085 209.775 26.6668 208.833 26.6668C207.892 26.6668 207.017 26.2085 206.333 25.4002M199.667 25.4002C199.008 26.2085 198.108 26.6668 197.167 26.6668C196.225 26.6668 195.35 26.2085 194.667 25.4002M219.667 30.0002C219.667 39.2049 212.205 46.6668 203 46.6668C193.795 46.6668 186.333 39.2049 186.333 30.0002C186.333 20.7954 193.795 13.3335 203 13.3335C212.205 13.3335 219.667 20.7954 219.667 30.0002Z" stroke="#5B539C" stroke-width="2" stroke-linecap="round" stroke-linejoin="round"></path></g><g opacity="0.8"><path d="M269.1 114.854C271.117 115.771 273.683 115.771 275.7 114.854C277.717 113.937 280.283 113.937 282.3 114.854C284.317 115.771 286.883 115.771 288.9 114.854M279 85V88.3333M265.667 101.667H262.333M269.524 92.1902L267.167 89.8332M288.476 92.1902L290.833 89.8332M295.667 101.667H292.333M270.667 101.667C270.667 97.0643 274.398 93.3333 279 93.3333C283.602 93.3333 287.333 97.0643 287.333 101.667M262.5 109.021C264.517 108.104 267.084 108.104 269.1 109.021C271.117 109.938 273.684 109.938 275.7 109.021C277.717 108.104 280.284 108.104 282.3 109.021C284.317 109.938 286.884 109.938 288.9 109.021C290.917 108.104 293.484 108.104 295.5 109.021" stroke="#5B539C" stroke-width="2" stroke-linecap="round" stroke-linejoin="round"></path></g><g opacity="0.8"><path d="M504.333 45V21.6667C504.333 20.1167 504.333 19.3417 504.504 18.7059C504.966 16.9804 506.314 15.6327 508.039 15.1704C508.675 15 509.45 15 511 15C512.55 15 513.325 15 513.961 15.1704C515.686 15.6327 517.034 16.9804 517.496 18.7059C517.667 19.3417 517.667 20.1167 517.667 21.6667V32.5M517.667 39.1667V45M502.333 45H519.667C522.467 45 523.867 45 524.937 44.455C525.877 43.9757 526.642 43.2108 527.122 42.27C527.667 41.2004 527.667 39.8003 527.667 37V29.6667C527.667 26.8664 527.667 25.4663 527.122 24.3967C526.642 23.4559 525.877 22.691 524.937 22.2116C523.867 21.6667 522.467 21.6667 519.667 21.6667H502.333C499.533 21.6667 498.133 21.6667 497.063 22.2116C496.123 22.691 495.358 23.4559 494.878 24.3967C494.333 25.4663 494.333 26.8664 494.333 29.6667V37C494.333 39.8003 494.333 41.2004 494.878 42.27C495.358 43.2108 496.123 43.9757 497.063 44.455C498.133 45 499.533 45 502.333 45ZM512.333 39.1667H520.5C520.967 39.1667 521.2 39.1667 521.378 39.0758C521.535 38.9959 521.663 38.8685 521.743 38.7117C521.833 38.5334 521.833 38.3 521.833 37.8333V33.8333C521.833 33.3666 521.833 33.1333 521.743 32.955C521.663 32.7982 521.535 32.6707 521.378 32.5908C521.2 32.5 520.967 32.5 520.5 32.5H512.333C511.867 32.5 511.633 32.5 511.455 32.5908C511.298 32.6707 511.171 32.7982 511.091 32.955C511 33.1333 511 33.3666 511 33.8333V37.8333C511 38.3 511 38.5334 511.091 38.7117C511.171 38.8685 511.298 38.9959 511.455 39.0758C511.633 39.1667 511.867 39.1667 512.333 39.1667Z" stroke="#5B539C" stroke-width="2" stroke-linecap="round" stroke-linejoin="round"></path></g></svg>